<svg id="Layer_1" data-name="Layer 1" xmlns="http://www.w3.org/2000/svg" viewBox="0 0 61.16 68.36"><defs><style>.cls-1{fill:#e30610;}.cls-2,.cls-3,.cls-4{fill:none;stroke:#e30610;}.cls-2,.cls-4{stroke-miterlimit:10;}.cls-3,.cls-4{stroke-linecap:round;}.cls-3{stroke-linejoin:round;}</style></defs><path class="cls-1" d="M40.83,59.3l.47,7.09-3.65-4,3.18-3.14m.85-2.25-5.42,5.36,6.22,6.73-.8-12.09Z" transform="translate(-3.57 -6.17)"/><polyline class="cls-2" points="22.61 38.97 22.74 39.77 24.5 54.41 25.95 67.83 39.31 66.94 32.59 59.89 32.05 59.32 31.2 58.43 31.62 67.02 31.62 67.05 29.47 67.15 28.71 67.23 26 40.07"/><path class="cls-2" d="M33.86,46.33c.32,4.69.32,9.43.7,14.11l.19-.18-.19.18c1.91-1.89,3.85-3.58,5.72-5.53.33-.25.59-.5.93-.76s.67-.42.59-.76c0-3.38-.52-7-.64-10.37" transform="translate(-3.57 -6.17)"/><path class="cls-1" d="M34.58,46.1c-.12,0-.24.1-.37.1h0a2.78,2.78,0,0,1-.34.08l.72,14.41.77-.73v-.24l-.69-13.59v0Z" transform="translate(-3.57 -6.17)"/><polygon class="cls-1" points="31.2 58.68 31.62 67.27 31.62 67.3 32.42 67.26 32.42 67.23 32.05 59.57 31.2 58.68 31.2 58.68"/><path class="cls-2" d="M31.48,24a9.69,9.69,0,1,1-9,10.3,9.68,9.68,0,0,1,9-10.3" transform="translate(-3.57 -6.17)"/><path class="cls-1" d="M29.66,10.54c5.12,5.55,14.13,16.06,14.9,20.38a12.59,12.59,0,0,1-24.8,4.36c-.52-2.94,2.17-7.72,4.76-12.34,2.46-4.37,5-8.84,5.14-12.4M26.79,6.17a6.56,6.56,0,0,0,.8,1c5.2,5.74-10.11,21-8.81,28.34a13.59,13.59,0,1,0,26.76-4.71C44.39,24.2,27.07,6.17,26.79,6.17Z" transform="translate(-3.57 -6.17)"/><rect class="cls-2" x="26.56" y="30.67" width="10.22" height="1.42" rx="0.24" transform="translate(-5.56 -4.03) rotate(-3.76)"/><rect class="cls-2" x="26.8" y="33.65" width="10.07" height="1.4" rx="0.24" transform="translate(-5.76 -4.01) rotate(-3.76)"/><rect class="cls-2" x="28.02" y="36.32" width="10.07" height="1.4" rx="0.24" transform="translate(-5.93 -3.92) rotate(-3.76)"/><path class="cls-3" d="M49.71,50.93S61.47,58,64.23,50.1c-20.56-11.86-23.07-5.81-23.07-5.81" transform="translate(-3.57 -6.17)"/><path class="cls-4" d="M46.86,55.11S54.78,59,57.23,53.8" transform="translate(-3.57 -6.17)"/><path class="cls-2" d="M41.42,58s6.16,2.64,9.48-1.69" transform="translate(-3.57 -6.17)"/><path class="cls-3" d="M18.57,54.09s-10.75,8.52-14.5,1c18.87-14.39,22.11-8.62,22.11-8.62" transform="translate(-3.57 -6.17)"/><path class="cls-4" d="M21.94,57.86s-7.36,4.83-10.46,0" transform="translate(-3.57 -6.17)"/><path class="cls-2" d="M28,60.54s-6.14,2.94-10-.93" transform="translate(-3.57 -6.17)"/></svg>